<svg xmlns="http://www.w3.org/2000/svg" width="1200" height="800" viewBox="0 0 1200 800">
  <defs>
    <linearGradient id="bg" x1="0" y1="0" x2="1" y2="1">
      <stop offset="0%" stop-color="#0f172a"/>
      <stop offset="100%" stop-color="#1e293b"/>
    </linearGradient>
  </defs>
  <rect width="1200" height="800" fill="url(#bg)"/>
  <rect x="120" y="80" width="960" height="640" rx="24" fill="#ffffff"/>
  <rect x="170" y="150" width="300" height="36" rx="8" fill="#e2e8f0"/>
  <rect x="170" y="220" width="860" height="20" rx="6" fill="#f1f5f9"/>
  <rect x="170" y="260" width="780" height="20" rx="6" fill="#f1f5f9"/>
  <rect x="170" y="300" width="820" height="20" rx="6" fill="#f1f5f9"/>
  <rect x="170" y="380" width="240" height="240" rx="14" fill="#dbeafe"/>
  <rect x="450" y="380" width="580" height="32" rx="8" fill="#e2e8f0"/>
  <rect x="450" y="430" width="520" height="20" rx="6" fill="#f1f5f9"/>
  <rect x="450" y="468" width="500" height="20" rx="6" fill="#f1f5f9"/>
  <rect x="450" y="506" width="460" height="20" rx="6" fill="#f1f5f9"/>
  <text x="170" y="130" font-size="32" font-family="'Malgun Gothic', Arial, sans-serif" fill="#334155">동네마켓 신청 서류 샘플</text>
  <text x="470" y="405" font-size="22" font-family="'Malgun Gothic', Arial, sans-serif" fill="#0f172a">문서 유형: 신분증/통장사본</text>
  <text x="470" y="560" font-size="18" font-family="'Malgun Gothic', Arial, sans-serif" fill="#64748b">이 이미지는 개발용 더미 미리보기입니다.</text>
</svg>
